# xmcd
#
# Track frame offsets:
#	150
#	9442
#	21605
#	30185
#	44802
#	55475
#	69672
#	83285
#	96120
#	106862
#	116930
#	129450
#	145232
#	159247
#	169002
#	180347
#	193895
#	206017
#	220725
#	226672
#	245552
#
# Disc length: 3557 seconds
#
# Revision: 0
# Processed by: cddbd v1.5.1PL0 Copyright (c) Steve Scherf et al.
# Submitted via: EasyCDDAExtractor 7.1.3.1
#
DISCID=1d0de315
DTITLE=Big Jay McNeely - Crazy
DYEAR=1997
DGENRE=Blues
TTITLE0=Blow Blow Blow
TTITLE1=Salt And Pepper
TTITLE2=Tall Brown Woman
TTITLE3=Deacon Blows For Ray
TTITLE4=The Goof
TTITLE5=Mule Milke
TTITLE6=Texas Turkey
TTITLE7=3-D
TTITLE8=Rock Candy
TTITLE9=She Don't Work
TTITLE10=Hot Cinders
TTITLE11=My Darling Dear
TTITLE12=Minnie
TTITLE13=Beachcomber
TTITLE14=Just Crazy
TTITLE15=Penthouse Serenade
TTITLE16=Psycho Serenade
TTITLE17=I Got The Message
TTITLE18=Bamboo Vamp
TTITLE19=Oh What A Fool
TTITLE20=You Send Me
EXTD=
EXTT0=
EXTT1=
EXTT2=
EXTT3=
EXTT4=
EXTT5=
EXTT6=
EXTT7=
EXTT8=
EXTT9=
EXTT10=
EXTT11=
EXTT12=
EXTT13=
EXTT14=
EXTT15=
EXTT16=
EXTT17=
EXTT18=
EXTT19=
EXTT20=
PLAYORDER=
